<svg width="512" height="512" viewBox="0 0 512 512" fill="none" xmlns="http://www.w3.org/2000/svg">
  <defs>
    <linearGradient id="ocha_left" x1="100" y1="100" x2="256" y2="400" gradientUnits="userSpaceOnUse">
      <stop offset="0%" stop-color="#184363" /> <stop offset="100%" stop-color="#4A89AC" /> </linearGradient>

    <linearGradient id="ocha_right" x1="256" y1="400" x2="400" y2="100" gradientUnits="userSpaceOnUse">
      <stop offset="0%" stop-color="#4A89AC" /> <stop offset="100%" stop-color="#8CC5E3" /> </linearGradient>

    <filter id="dropShadow" x="-20%" y="-20%" width="140%" height="140%">
      <feGaussianBlur in="SourceAlpha" stdDeviation="10"/>
      <feOffset dx="2" dy="4" result="offsetblur"/>
      <feComponentTransfer>
        <feFuncA type="linear" slope="0.3"/>
      </feComponentTransfer>
      <feMerge> 
        <feMergeNode/>
        <feMergeNode in="SourceGraphic"/> 
      </feMerge>
    </filter>
  </defs>

  <g transform="translate(0,0)">
    
    <path 
      d="M256 64 C 362 64 448 150 448 256 C 448 362 362 448 256 448 C 320 448 370 362 370 256 C 370 150 320 64 256 64 Z" 
      fill="url(#ocha_right)" 
    />

    <path 
      d="M256 448 C 150 448 64 362 64 256 C 64 150 150 64 256 64 C 192 64 142 150 142 256 C 142 362 192 448 256 448 Z" 
      fill="url(#ocha_left)"
      filter="url(#dropShadow)"
    />
    
  </g>
</svg>